<?xml version="1.0" encoding="UTF-8" standalone="no"?>
<!DOCTYPE svg PUBLIC "-//W3C//DTD SVG 1.1//EN" "http://www.w3.org/Graphics/SVG/1.1/DTD/svg11.dtd">
<svg width="100%" height="100%" viewBox="0 0 1532 1532" version="1.1" xmlns="http://www.w3.org/2000/svg" xmlns:xlink="http://www.w3.org/1999/xlink" xml:space="preserve" xmlns:serif="http://www.serif.com/" style="fill-rule:evenodd;clip-rule:evenodd;stroke-linejoin:round;stroke-miterlimit:2;">
    <g transform="matrix(1,0,0,1,-1757.597266,-2911.056506)">
        <g transform="matrix(1.487484,0,0,1.296777,-1230.187551,-1054.869102)">
            <path d="M2896.398,3272.139L2896.398,4025.553C2896.398,4143.577 2812.862,4239.397 2709.97,4239.397L2337.114,4239.397C2234.222,4239.397 2150.686,4143.577 2150.686,4025.553L2150.686,3272.139C2150.686,3154.115 2234.222,3058.295 2337.114,3058.295L2709.97,3058.295C2812.862,3058.295 2896.398,3154.115 2896.398,3272.139Z" style="fill:rgb(2,48,71);"/>
        </g>
        <g transform="matrix(0,-1.942603,1.941957,0,1839.973142,4301.560488)">
            <path d="M32,240C32,195.8 67.8,160 112,160L528,160C572.2,160 608,195.8 608,240L608,288C625.7,288 640,302.3 640,320L640,384C640,401.7 625.7,416 608,416L608,464C608,508.2 572.2,544 528,544L112,544C67.8,544 32,508.2 32,464L32,240ZM201.368,224L112,224C103.2,224 96,231.2 96,240L96,464C96,472.8 103.2,480 112,480L201.368,480C204.666,489.318 213.559,496 224,496C234.441,496 243.334,489.318 246.632,480L528,480C536.8,480 544,472.8 544,464L544,240C544,231.2 536.8,224 528,224L246.632,224C243.334,214.682 234.441,208 224,208C213.559,208 204.666,214.682 201.368,224Z" style="fill:white;"/>
        </g>
        <g transform="matrix(1.456468,0,0,1.456952,2057.472371,3400.192896)">
            <path d="M64,320C64,178.6 178.6,64 320,64C461.4,64 576,178.6 576,320C576,461.4 461.4,576 320,576C178.6,576 64,461.4 64,320ZM352,160C352,142.3 337.7,128 320,128C302.3,128 288,142.3 288,160C288,177.7 302.3,192 320,192C337.7,192 352,177.7 352,160ZM320,480C355.3,480 384,451.3 384,416C384,399.8 378,384.9 368,373.7L437.5,234.8C443.4,222.9 438.6,208.5 426.8,202.6C415,196.7 400.5,201.5 394.6,213.3L325.1,352.2C323.4,352.1 321.7,352 320,352C284.7,352 256,380.7 256,416C256,451.3 284.7,480 320,480ZM240,208C240,190.3 225.7,176 208,176C190.3,176 176,190.3 176,208C176,225.7 190.3,240 208,240C225.7,240 240,225.7 240,208ZM160,352C177.7,352 192,337.7 192,320C192,302.3 177.7,288 160,288C142.3,288 128,302.3 128,320C128,337.7 142.3,352 160,352ZM512,320C512,302.3 497.7,288 480,288C462.3,288 448,302.3 448,320C448,337.7 462.3,352 480,352C497.7,352 512,337.7 512,320Z" style="fill:white;fill-rule:nonzero;"/>
        </g>
        <g transform="matrix(1.160089,0,0,1.103068,928.168836,-462.449609)">
            <rect x="714.97" y="3058.295" width="1320.493" height="1388.515" style="fill:none;"/>
        </g>
    </g>
</svg>
